<svg height="512" width="512" 
    xmlns="http://www.w3.org/2000/svg">
    <path d="M437.017 74.985C390.665 28.629 326.732 0 256 0S121.338 28.629 74.986 74.985C28.634 121.341 0 185.268 0 256s28.634 134.661 74.986 181.014C121.338 483.368 185.268 512 256 512s134.665-28.632 181.017-74.986C483.368 390.661 512 326.732 512 256s-28.632-134.659-74.983-181.015z" fill="#007faa" />
    <path clip-rule="evenodd" d="M275.559 203.692v-20.978c0-10.064 6.664-12.473 11.491-12.473h29.338v-44.795h-40.4c-44.933 0-54.995 33.168-54.995 54.716v23.529h-26.087V256h26.365v130.695h52.309V256h38.693l1.707-20.554 3.12-31.754h-41.541z" fill="#FFF" fill-rule="evenodd"/>
</svg>