<svg height="512" width="512" 
    xmlns="http://www.w3.org/2000/svg">
    <path d="M437.013 74.985C390.803 28.629 326.729 0 255.998 0c-70.591 0-134.655 28.629-181.01 74.985C28.634 121.341 0 185.268 0 256s28.634 134.661 74.988 181.014C121.343 483.368 185.407 512 255.998 512c70.731 0 134.805-28.632 181.015-74.986C483.369 390.661 512 326.732 512 256s-28.631-134.659-74.987-181.015z" fill="#007faa" />
    <path clip-rule="evenodd" d="M190.512 256c0-36.146 29.343-65.631 65.486-65.631 36.29 0 65.633 29.484 65.633 65.631 0 36.285-29.343 65.631-65.633 65.631-36.144 0-65.486-29.346-65.486-65.631zm133.249-128.283H188.386c-33.311 0-60.664 27.213-60.664 60.671v135.371c0 33.306 27.354 60.665 60.664 60.665h135.375c33.453 0 60.665-27.359 60.665-60.665V188.388c0-33.458-27.212-60.671-60.665-60.671zm-135.375 15.169h135.375c25.092 0 45.499 20.407 45.499 45.502v135.371c0 25.087-20.407 45.496-45.499 45.496H188.386c-25.092 0-45.498-20.409-45.498-45.496V188.388c0-25.095 20.406-45.502 45.498-45.502zm148.835 19.135a13.302 13.302 0 0 0-13.318 13.321c0 7.373 5.947 13.326 13.318 13.326s13.328-5.953 13.328-13.326c0-7.369-5.957-13.321-13.328-13.321zm1.56 93.979c0-45.646-36.992-82.781-82.783-82.781-45.641 0-82.778 37.136-82.778 82.781 0 45.786 37.138 82.783 82.778 82.783 45.791 0 82.783-36.997 82.783-82.783z" fill="#FFF" fill-rule="evenodd"/>
</svg>