<svg viewBox="0 0 1191 626" xmlns="http://www.w3.org/2000/svg" fill-rule="evenodd" clip-rule="evenodd" stroke-linejoin="round" stroke-miterlimit="2"><path d="M1191 501.3c0-11.204-9.096-20.3-20.3-20.3H20.3C9.096 481 0 490.096 0 501.3v104.4C0 616.904 9.096 626 20.3 626h1150.4c11.204 0 20.3-9.096 20.3-20.3V501.3zM1191 18.8c0-10.376-8.424-18.8-18.8-18.8H18.8C8.424 0 0 8.424 0 18.8v197.4C0 226.576 8.424 235 18.8 235h1153.4c10.376 0 18.8-8.424 18.8-18.8V18.8z" fill="#007faa"/><path d="M77.336 571.078c0-3.548-.96-6.266-2.881-8.154-1.92-1.888-5.387-3.727-10.4-5.518-5.013-1.79-8.846-3.67-11.499-5.639-2.653-1.97-4.639-4.216-5.957-6.739-1.319-2.522-1.978-5.411-1.978-8.667 0-5.631 1.88-10.27 5.64-13.916 3.76-3.646 8.683-5.468 14.77-5.468 4.167 0 7.878.929 11.133 2.789 3.255 1.86 5.762 4.448 7.52 7.764 1.757 3.316 2.636 6.96 2.636 10.931h-8.984c0-4.395-1.058-7.796-3.174-10.205-2.116-2.409-5.159-3.613-9.131-3.613-3.613 0-6.413 1.01-8.398 3.032-1.986 2.022-2.979 4.859-2.979 8.511 0 3 1.075 5.511 3.223 7.533 2.148 2.022 5.469 3.832 9.961 5.429 6.999 2.315 12.003 5.166 15.015 8.551 3.011 3.386 4.516 7.813 4.516 13.281 0 5.762-1.872 10.376-5.615 13.843-3.744 3.467-8.838 5.2-15.283 5.2-4.134 0-7.951-.903-11.45-2.71-3.5-1.806-6.25-4.345-8.252-7.617-2.002-3.271-3.003-7.023-3.003-11.255h8.984c0 4.395 1.229 7.813 3.687 10.254 2.457 2.442 5.802 3.662 10.034 3.662 3.939 0 6.901-1.009 8.886-3.027 1.986-2.018 2.979-4.769 2.979-8.252zM140.471 517.953v50.537c-.065 6.739-2.019 12.012-5.86 15.821-3.841 3.808-9.196 5.712-16.064 5.712-7.031 0-12.402-1.863-16.113-5.59-3.711-3.728-5.599-9.042-5.664-15.943v-50.537h8.886v50.157c0 4.782 1.018 8.352 3.052 10.71 2.035 2.358 5.314 3.537 9.839 3.537 4.557 0 7.853-1.179 9.888-3.537 2.034-2.358 3.051-5.928 3.051-10.71v-50.157h8.985zM175.725 560.287h-12.5v28.76h-8.985v-71.094h19.922c6.966 0 12.24 1.815 15.82 5.444 3.581 3.63 5.372 8.944 5.372 15.943 0 4.394-.969 8.227-2.906 11.499-1.937 3.271-4.679 5.737-8.227 7.397l13.769 30.225v.586h-9.619l-12.646-28.76zm-12.5-7.666h10.839c3.744 0 6.731-1.206 8.96-3.62 2.23-2.413 3.345-5.641 3.345-9.686 0-9.13-4.134-13.696-12.402-13.696h-10.742v27.002zM240.275 557.65h-24.023v31.397h-8.936v-71.094h37.012v7.666h-28.076v24.365h24.023v7.666zM289.445 556.186h-25.146v25.195h29.297v7.666h-38.233v-71.094h37.744v7.666h-28.808v22.901h25.146v7.666zM326.506 560.287h-12.5v28.76h-8.985v-71.094h19.922c6.967 0 12.24 1.815 15.821 5.444 3.58 3.63 5.371 8.944 5.371 15.943 0 4.394-.969 8.227-2.906 11.499-1.936 3.271-4.679 5.737-8.227 7.397l13.769 30.225v.586h-9.619l-12.646-28.76zm-12.5-7.666h10.84c3.743 0 6.73-1.206 8.96-3.62 2.229-2.413 3.344-5.641 3.344-9.686 0-9.13-4.134-13.696-12.402-13.696h-10.742v27.002zM389.152 571.078c0-3.548-.96-6.266-2.881-8.154-1.92-1.888-5.387-3.727-10.4-5.518-5.013-1.79-8.846-3.67-11.499-5.639-2.653-1.97-4.639-4.216-5.957-6.739-1.318-2.522-1.977-5.411-1.977-8.667 0-5.631 1.879-10.27 5.639-13.916 3.76-3.646 8.683-5.468 14.771-5.468 4.166 0 7.877.929 11.132 2.789 3.256 1.86 5.762 4.448 7.52 7.764s2.637 6.96 2.637 10.931h-8.985c0-4.395-1.058-7.796-3.173-10.205-2.116-2.409-5.16-3.613-9.131-3.613-3.614 0-6.413 1.01-8.399 3.032-1.985 2.022-2.978 4.859-2.978 8.511 0 3 1.074 5.511 3.222 7.533 2.149 2.022 5.469 3.832 9.961 5.429 6.999 2.315 12.004 5.166 15.015 8.551 3.011 3.386 4.517 7.813 4.517 13.281 0 5.762-1.872 10.376-5.616 13.843-3.743 3.467-8.838 5.2-15.283 5.2-4.134 0-7.951-.903-11.45-2.71-3.499-1.806-6.25-4.345-8.252-7.617-2.002-3.271-3.003-7.023-3.003-11.255h8.984c0 4.395 1.229 7.813 3.687 10.254 2.458 2.442 5.802 3.662 10.034 3.662 3.939 0 6.901-1.009 8.887-3.027 1.986-2.018 2.978-4.769 2.978-8.252zM465.959 570.443h-24.023l-5.518 18.604h-9.18l22.901-71.094h7.666l22.949 71.094h-9.18l-5.615-18.604zm-21.68-7.666h19.385l-9.717-32.324-9.668 32.324zM534.367 580.209l-1.562 1.953c-4.492 5.241-11.068 7.861-19.727 7.861-7.682 0-13.712-2.547-18.091-7.641-4.378-5.095-6.616-12.297-6.714-21.607v-13.964c0-9.961 1.994-17.424 5.982-22.388 3.988-4.964 9.953-7.446 17.895-7.446 6.771 0 12.069 1.879 15.894 5.639 3.825 3.76 5.933 9.139 6.323 16.138h-8.935c-.358-4.427-1.587-7.886-3.687-10.376-2.099-2.49-5.281-3.735-9.546-3.735-5.11 0-8.854 1.668-11.23 5.004-2.377 3.337-3.614 8.667-3.711 15.992v14.502c0 7.161 1.367 12.654 4.101 16.479 2.735 3.825 6.657 5.737 11.768 5.737 4.818 0 8.48-1.166 10.986-3.499l1.319-1.215v-16.33h-12.989v-7.667h21.924v26.563zM582.121 570.443h-24.023l-5.518 18.604h-9.18l22.901-71.094h7.666l22.949 71.094h-9.18l-5.615-18.604zm-21.68-7.666h19.385l-9.717-32.324-9.668 32.324zM606.975 517.953h8.936v71.094h-8.936zM678.02 589.047h-8.985l-28.467-54.785v54.785h-8.984v-71.094h8.984l28.565 55.029v-55.029h8.887v71.094zM724.553 571.078c0-3.548-.961-6.266-2.881-8.154-1.921-1.888-5.387-3.727-10.401-5.518-5.013-1.79-8.846-3.67-11.499-5.639-2.653-1.97-4.638-4.216-5.957-6.739-1.318-2.522-1.977-5.411-1.977-8.667 0-5.631 1.88-10.27 5.64-13.916 3.759-3.646 8.683-5.468 14.77-5.468 4.167 0 7.878.929 11.133 2.789 3.255 1.86 5.762 4.448 7.519 7.764 1.758 3.316 2.637 6.96 2.637 10.931h-8.984c0-4.395-1.058-7.796-3.174-10.205-2.116-2.409-5.16-3.613-9.131-3.613-3.613 0-6.413 1.01-8.398 3.032-1.986 2.022-2.979 4.859-2.979 8.511 0 3 1.074 5.511 3.223 7.533 2.148 2.022 5.469 3.832 9.961 5.429 6.998 2.315 12.003 5.166 15.014 8.551 3.011 3.386 4.517 7.813 4.517 13.281 0 5.762-1.872 10.376-5.615 13.843-3.744 3.467-8.838 5.2-15.284 5.2-4.134 0-7.95-.903-11.45-2.71-3.499-1.806-6.25-4.345-8.252-7.617-2.002-3.271-3.003-7.023-3.003-11.255h8.985c0 4.395 1.229 7.813 3.686 10.254 2.458 2.442 5.803 3.662 10.034 3.662 3.939 0 6.902-1.009 8.887-3.027 1.986-2.018 2.979-4.769 2.979-8.252zM786.857 525.619h-18.701v63.428h-8.935v-63.428h-18.653v-7.666h46.289v7.666zM849.357 571.078c0-3.548-.96-6.266-2.88-8.154-1.921-1.888-5.388-3.727-10.401-5.518-5.013-1.79-8.846-3.67-11.499-5.639-2.653-1.97-4.639-4.216-5.957-6.739-1.318-2.522-1.977-5.411-1.977-8.667 0-5.631 1.879-10.27 5.639-13.916 3.76-3.646 8.683-5.468 14.771-5.468 4.166 0 7.877.929 11.133 2.789 3.255 1.86 5.761 4.448 7.519 7.764s2.637 6.96 2.637 10.931h-8.985c0-4.395-1.058-7.796-3.173-10.205-2.116-2.409-5.16-3.613-9.131-3.613-3.614 0-6.413 1.01-8.399 3.032-1.985 2.022-2.978 4.859-2.978 8.511 0 3 1.074 5.511 3.222 7.533 2.149 2.022 5.469 3.832 9.961 5.429 6.999 2.315 12.004 5.166 15.015 8.551 3.011 3.386 4.517 7.813 4.517 13.281 0 5.762-1.872 10.376-5.616 13.843-3.743 3.467-8.838 5.2-15.283 5.2-4.134 0-7.951-.903-11.45-2.71-3.499-1.806-6.25-4.345-8.252-7.617-2.002-3.271-3.003-7.023-3.003-11.255h8.984c0 4.395 1.229 7.813 3.687 10.254 2.458 2.442 5.802 3.662 10.034 3.662 3.939 0 6.901-1.009 8.887-3.027 1.986-2.018 2.978-4.769 2.978-8.252zM904.191 556.186h-25.146v25.195h29.297v7.666h-38.233v-71.094h37.745v7.666h-28.809v22.901h25.146v7.666zM933.342 566.635l.928 7.959 1.416-7.031 11.376-49.61h7.471l11.035 49.61 1.416 7.226 1.026-8.203 8.691-48.633h8.936l-14.16 71.094h-8.057l-11.865-51.807-.733-4.199-.732 4.199-12.305 51.807h-8.105l-14.112-71.094h8.936l8.838 48.682zM1026.99 570.443h-24.023l-5.518 18.604h-9.18l22.901-71.094h7.666l22.949 71.094h-9.18l-5.615-18.604zm-21.68-7.666h19.385l-9.717-32.324-9.668 32.324zM1095.4 580.209l-1.562 1.953c-4.492 5.241-11.068 7.861-19.727 7.861-7.682 0-13.712-2.547-18.091-7.641-4.378-5.095-6.616-12.297-6.713-21.607v-13.964c0-9.961 1.993-17.424 5.981-22.388 3.988-4.964 9.953-7.446 17.896-7.446 6.77 0 12.068 1.879 15.893 5.639 3.825 3.76 5.933 9.139 6.323 16.138h-8.935c-.358-4.427-1.587-7.886-3.687-10.376-2.099-2.49-5.281-3.735-9.546-3.735-5.11 0-8.854 1.668-11.23 5.004-2.376 3.337-3.613 8.667-3.711 15.992v14.502c0 7.161 1.367 12.654 4.102 16.479 2.734 3.825 6.656 5.737 11.767 5.737 4.818 0 8.48-1.166 10.986-3.499l1.319-1.215v-16.33h-12.988v-7.667h21.923v26.563zM1144.08 556.186h-25.147v25.195h29.297v7.666h-38.232v-71.094h37.744v7.666h-28.809v22.901h25.147v7.666zM66.926 137.961v48.5h-27.85V48.539h46.985c13.64 0 24.518 4.231 32.633 12.693 8.115 8.463 12.172 19.451 12.172 32.965 0 13.515-4.01 24.187-12.03 32.018-8.02 7.831-19.135 11.746-33.344 11.746H66.926zm0-23.208h19.135c5.304 0 9.409-1.737 12.314-5.21 2.905-3.473 4.357-8.525 4.357-15.156 0-6.884-1.484-12.362-4.452-16.435-2.968-4.074-6.946-6.142-11.935-6.205H66.926v43.006zM177.282 163.348h48.879v23.113h-76.728V48.539h27.849v114.809zM309.899 158.232h-37.985l-7.389 28.229h-29.46l43.101-137.922h25.481l43.385 137.922h-29.744l-7.389-28.229zm-31.922-23.208h25.765l-12.883-49.163-12.882 49.163zM418.172 150.275c0-5.62-1.437-9.867-4.31-12.74-2.874-2.874-8.099-5.858-15.677-8.952-13.831-5.242-23.777-11.383-29.839-18.424-6.063-7.042-9.094-15.362-9.094-24.961 0-11.62 4.121-20.95 12.362-27.991 8.241-7.042 18.708-10.562 31.402-10.562 8.462 0 16.008 1.784 22.639 5.352 6.631 3.568 11.731 8.604 15.299 15.108 3.568 6.505 5.352 13.894 5.352 22.166h-27.755c0-6.441-1.374-11.351-4.121-14.729-2.747-3.379-6.71-5.068-11.888-5.068-4.863 0-8.652 1.436-11.367 4.31-2.716 2.873-4.073 6.741-4.073 11.604 0 3.789 1.515 7.215 4.546 10.278 3.032 3.062 8.4 6.236 16.104 9.52 13.451 4.862 23.224 10.83 29.318 17.903 6.094 7.073 9.141 16.072 9.141 26.997 0 11.999-3.821 21.377-11.462 28.134-7.641 6.757-18.03 10.135-31.165 10.135-8.904 0-17.019-1.831-24.345-5.494-7.325-3.662-13.056-8.904-17.193-15.724-4.136-6.821-6.204-14.872-6.204-24.156h27.944c0 7.957 1.547 13.736 4.642 17.335 3.094 3.6 8.146 5.4 15.156 5.4 9.725 0 14.588-5.147 14.588-15.441zM554.01 71.747h-34.102v114.714h-27.944V71.747h-33.533V48.539h95.579v23.208zM571.25 48.539h27.85v137.922h-27.85zM715.992 140.519c-.694 15.724-5.115 27.628-13.262 35.711-8.146 8.084-19.64 12.125-34.48 12.125-15.598 0-27.55-5.131-35.854-15.393-8.304-10.262-12.457-24.897-12.457-43.905v-23.208c0-18.946 4.295-33.549 12.883-43.811 8.589-10.262 20.524-15.393 35.807-15.393 15.03 0 26.444 4.199 34.244 12.598 7.799 8.399 12.235 20.461 13.309 36.186h-27.945c-.252-9.726-1.752-16.435-4.499-20.13-2.747-3.694-7.784-5.541-15.109-5.541-7.452 0-12.725 2.605-15.819 7.815-3.095 5.21-4.737 13.782-4.926 25.718v26.05c0 13.704 1.531 23.113 4.594 28.228 3.063 5.116 8.32 7.673 15.772 7.673 7.326 0 12.378-1.784 15.156-5.352 2.779-3.568 4.358-10.025 4.737-19.371h27.849zM848.988 130.193h-43.29v56.268h-27.849V48.539h76.349v23.208h-48.5v35.333h43.29v23.113zM911.887 136.066h-13.83v50.395h-27.85V48.539h44.427c13.956 0 24.739 3.615 32.349 10.846 7.61 7.231 11.414 17.509 11.414 30.834 0 18.314-6.662 31.133-19.987 38.459l24.155 56.457v1.326h-29.933l-20.745-50.395zm-13.83-23.208h15.819c5.557 0 9.725-1.847 12.504-5.541 2.779-3.694 4.168-8.636 4.168-14.825 0-13.83-5.4-20.745-16.198-20.745h-16.293v41.111zM1048.77 126.783h-43.385v36.565h51.342v23.113h-79.192V48.539h79.002v23.208h-51.152v32.586h43.385v22.45zM1143.97 126.783h-43.385v36.565h51.342v23.113h-79.192V48.539h79.002v23.208h-51.152v32.586h43.385v22.45z" fill="#fff" fill-rule="nonzero"/><path d="M116.702 385.171c-.82 18.562-6.038 32.614-15.654 42.155-9.616 9.542-23.183 14.313-40.701 14.313-18.413 0-32.52-6.057-42.323-18.17-9.802-12.114-14.704-29.39-14.704-51.827v-27.395c0-22.364 5.069-39.602 15.207-51.716 10.138-12.113 24.227-18.17 42.267-18.17 17.741 0 31.215 4.958 40.422 14.872 9.206 9.914 14.443 24.152 15.71 42.714H83.94c-.298-11.48-2.069-19.4-5.311-23.761-3.243-4.361-9.188-6.541-17.835-6.541-8.796 0-15.021 3.074-18.673 9.224-3.653 6.15-5.591 16.27-5.815 30.359v30.749c0 16.176 1.808 27.283 5.423 33.321 3.616 6.038 9.821 9.057 18.618 9.057 8.647 0 14.61-2.105 17.89-6.317 3.28-4.212 5.144-11.834 5.591-22.867h32.874zM251.553 372.648c0 21.841-5.162 38.8-15.487 50.876-10.324 12.077-24.655 18.115-42.993 18.115-18.264 0-32.613-5.983-43.05-17.947-10.436-11.964-15.728-28.718-15.877-50.261v-27.843c0-22.363 5.18-39.825 15.542-52.386 10.362-12.56 24.749-18.841 43.161-18.841 18.114 0 32.39 6.169 42.826 18.506s15.729 29.65 15.878 51.939v27.842zm-32.986-27.283c0-14.685-2.087-25.606-6.262-32.762-4.174-7.157-10.66-10.735-19.456-10.735-8.722 0-15.17 3.448-19.344 10.343-4.175 6.896-6.336 17.388-6.485 31.477v28.96c0 14.238 2.124 24.73 6.373 31.476 4.249 6.747 10.809 10.12 19.68 10.12 8.572 0 14.946-3.299 19.12-9.896 4.175-6.597 6.299-16.828 6.374-30.694v-28.289zM318.083 276.598l30.75 117.742 30.638-117.742h42.937v162.804h-32.986v-44.055l3.019-67.873-32.538 111.928H337.54l-32.539-111.928 3.019 67.873v44.055h-32.874V276.598h42.937zM491.734 276.598l30.75 117.742 30.638-117.742h42.937v162.804h-32.986v-44.055l3.019-67.873-32.538 111.928H511.19l-32.538-111.928 3.019 67.873v44.055h-32.874V276.598h42.937zM728.338 276.598v112.711c-.149 16.921-4.808 29.873-13.977 38.856-9.169 8.982-22.326 13.474-39.471 13.474-17.444 0-30.768-4.548-39.975-13.642-9.206-9.094-13.809-22.251-13.809-39.471V276.598h33.098v112.04c0 9.243 1.49 15.84 4.472 19.791 2.982 3.951 8.387 5.926 16.214 5.926 7.827 0 13.194-1.956 16.101-5.87 2.907-3.913 4.398-10.343 4.473-19.288V276.598h32.874zM867.102 439.402h-32.874l-48.081-106.784v106.784h-32.874V276.598h32.874l48.193 106.896V276.598h32.762v162.804zM894.944 276.598h32.874v162.805h-32.874zM1057.64 303.993h-40.254v135.409H984.4V303.993h-39.583v-27.395h112.823v27.395zM1127.41 349.726l24.487-73.128h35.782l-43.609 103.765v59.039h-33.321v-59.039l-43.72-103.765h35.781l24.6 73.128z" fill="#9e1f86" fill-rule="nonzero"/></svg>