<svg height="512" width="512" 
    xmlns="http://www.w3.org/2000/svg">
    <path d="M437.013 74.985C390.803 28.631 326.729 0 256 0 185.41 0 121.343 28.631 74.988 74.985 28.634 121.337 0 185.266 0 255.998c0 70.734 28.634 134.663 74.988 181.012C121.343 483.367 185.41 512 256 512c70.729 0 134.803-28.633 181.013-74.99C483.369 390.661 512 326.732 512 255.998c0-70.732-28.631-134.661-74.987-181.013z" fill="#007faa" />
    <path clip-rule="evenodd" d="M262.238 125.449c-73.423 0-110.705 50.889-110.705 93.555 0 7.937.851 15.593 2.835 22.537 4.395 16.017 13.892 28.913 28.919 34.871 3.541 1.558 6.801 0 7.651-3.686.853-2.693 2.405-9.217 3.261-12.049 1.134-3.829.707-5.102-2.128-8.363-3.683-4.397-6.803-9.357-8.502-15.595-1.136-4.11-1.845-8.646-1.845-13.89 0-37.847 29.34-71.87 76.403-71.87 41.531 0 64.497 24.524 64.497 57.411 0 9.784-.994 18.996-2.837 27.783-6.519 30.193-23.527 52.021-46.353 52.021-16.158 0-28.492-12.899-24.521-28.919 2.27-8.924 5.526-18.284 8.363-27.356 2.977-9.499 5.526-18.71 5.526-25.796 0-12.476-6.804-22.537-21.116-22.537-16.59 0-29.911 16.726-29.911 38.834 0 4.114.419 8.083.989 11.057 1.561 7.941 3.971 12.761 3.971 12.761s-17.009 69.601-19.846 81.791c-5.952 24.375-.851 54.005-.422 56.981.142 1.699 2.547 2.126 3.686.849 1.558-1.982 21.258-25.372 28.063-49.043 1.701-6.804 10.917-41.39 10.917-41.39 5.246 10.064 20.978 18.853 37.846 18.853 40.399 0 70.449-29.344 80.233-72.01 2.262-9.641 3.397-20.131 3.397-30.9.002-44.652-38.978-85.9-98.371-85.9z" fill="#FFF" fill-rule="evenodd"/>
</svg>