<?xml version="1.0" standalone="no"?>
<!DOCTYPE svg PUBLIC "-//W3C//DTD SVG 20010904//EN"
 "http://www.w3.org/TR/2001/REC-SVG-20010904/DTD/svg10.dtd">
<svg version="1.0" xmlns="http://www.w3.org/2000/svg"
 width="1191.000000pt" height="1191.000000pt" viewBox="0 0 1191.000000 1191.000000"
 preserveAspectRatio="xMidYMid meet">
<metadata>
Created by potrace 1.11, written by Peter Selinger 2001-2013
</metadata>
<g transform="translate(0.000000,1191.000000) scale(0.100000,-0.100000)"
fill="#000000" stroke="none">
<path d="M106 9070 c-45 -25 -81 -64 -96 -104 -7 -19 -9 -367 -7 -1065 l2
-1036 25 -38 c14 -22 45 -49 72 -63 l47 -24 5810 0 c4664 0 5814 3 5833 13 46
23 87 64 102 102 14 34 16 154 16 1066 0 794 -3 1033 -13 1051 -21 40 -41 63
-77 88 l-35 25 -5820 3 -5820 2 -39 -20z"/>
<path d="M504 6339 c-244 -32 -416 -227 -460 -519 -9 -63 -9 -554 0 -615 26
-177 90 -313 191 -408 40 -37 148 -91 214 -107 60 -14 212 -18 281 -7 144 23
280 106 338 207 14 25 29 47 32 50 10 8 49 140 56 185 3 22 6 57 8 78 l3 37
-163 0 c-149 0 -164 -2 -165 -17 -5 -82 -25 -161 -49 -201 -53 -87 -255 -102
-338 -24 -74 68 -89 161 -86 522 2 288 5 324 30 399 31 93 71 130 159 148 46
9 52 9 124 -1 96 -15 151 -96 156 -234 l2 -57 167 -2 168 -1 -6 41 c-4 23 -9
58 -12 77 -3 19 -13 58 -22 85 -9 28 -17 52 -17 55 -10 49 -92 164 -149 209
-105 84 -288 124 -462 100z"/>
<path d="M1845 6342 c-52 -5 -138 -32 -195 -60 -55 -27 -152 -114 -183 -164
-57 -92 -93 -183 -104 -261 -3 -23 -9 -51 -13 -62 -8 -22 -6 -579 3 -610 3
-11 12 -48 21 -83 32 -122 92 -223 180 -303 34 -31 163 -99 199 -104 12 -2 38
-7 57 -11 63 -13 222 -7 290 10 157 42 272 141 344 298 31 66 40 101 62 218
10 53 11 485 1 565 -25 215 -117 386 -258 481 -38 26 -98 56 -121 60 -5 1 -10
3 -13 4 -7 3 -14 5 -65 15 -48 8 -155 12 -205 7z m128 -276 c92 -15 156 -81
186 -191 21 -78 25 -153 24 -395 -1 -315 -16 -392 -97 -474 -71 -74 -237 -75
-314 -3 -38 35 -74 112 -89 187 -10 50 -10 576 0 629 15 79 47 150 88 191 22
22 43 40 47 40 4 1 30 7 57 14 28 8 52 12 55 11 3 -2 22 -6 43 -9z"/>
<path d="M2759 6320 c-6 -4 -8 -308 -7 -815 l3 -809 148 -1 c170 0 190 4 179
37 -4 13 -5 46 -2 73 3 28 2 67 -1 87 -3 21 -4 40 -1 43 6 6 5 140 -3 310 -3
66 -7 172 -10 235 -3 63 -7 160 -10 214 -2 54 -3 97 -1 95 5 -5 116 -378 121
-404 2 -11 10 -40 18 -65 7 -25 24 -81 37 -125 12 -44 25 -87 28 -95 3 -8 6
-20 8 -27 1 -7 9 -34 18 -60 8 -26 17 -60 20 -75 2 -14 9 -35 15 -46 6 -10 13
-32 16 -48 3 -16 13 -56 23 -89 l18 -59 99 -1 c55 0 106 1 112 3 10 3 49 107
59 158 2 11 34 122 78 269 31 103 57 195 61 218 2 9 7 22 10 27 3 5 8 18 10
29 2 10 13 51 25 91 12 40 23 80 25 89 10 44 58 197 65 204 4 5 6 -9 3 -30 -3
-37 -5 -69 -19 -383 -4 -85 -7 -272 -8 -414 l-1 -260 162 0 c100 -1 164 3 166
9 6 20 1 1600 -5 1610 -4 7 -79 10 -210 9 -112 -1 -206 -3 -209 -3 -5 -1 -11
-19 -19 -66 -1 -2 -6 -19 -11 -37 -11 -36 -79 -294 -84 -318 -2 -8 -4 -15 -5
-15 -1 0 -3 -9 -5 -19 -2 -11 -13 -55 -25 -99 -12 -43 -23 -87 -25 -96 -2 -9
-8 -31 -14 -49 -5 -18 -10 -35 -10 -37 -1 -3 -1 -6 -2 -7 0 -2 -2 -10 -4 -18
-1 -9 -12 -50 -23 -91 -12 -42 -23 -86 -26 -100 -18 -84 -50 -196 -59 -204 -7
-7 -8 -6 -3 3 4 7 2 12 -5 12 -7 0 -10 3 -7 6 4 3 2 20 -3 37 -6 18 -12 39
-14 47 -2 8 -8 33 -13 55 -5 22 -20 76 -32 120 -12 44 -23 87 -25 95 -4 20
-170 652 -182 695 -3 11 -7 35 -10 53 -3 17 -10 32 -17 33 -47 5 -409 3 -417
-1z"/>
<path d="M4490 6295 c-1 -240 -1 -1548 -1 -1570 l1 -30 158 1 c86 1 160 2 163
3 7 1 2 535 -6 716 -3 61 -7 162 -10 225 -3 63 -7 121 -10 128 -2 6 0 12 5 12
6 0 11 -4 11 -10 2 -12 2 -14 18 -70 7 -25 19 -63 26 -85 8 -22 16 -51 18 -65
3 -14 14 -54 26 -90 12 -36 23 -74 25 -85 3 -11 13 -48 24 -82 11 -35 18 -63
15 -63 -3 0 -1 -6 4 -12 6 -7 16 -38 23 -68 7 -30 15 -59 19 -65 3 -5 7 -19 8
-30 2 -11 6 -27 10 -35 3 -8 7 -19 8 -25 2 -5 13 -44 26 -85 12 -41 23 -80 25
-86 7 -40 36 -124 42 -125 37 -5 215 -2 218 3 3 5 130 439 149 508 6 20 81
276 94 318 5 18 11 36 12 40 10 40 40 145 49 174 5 14 6 29 3 32 -4 3 -1 6 5
6 11 0 11 -62 -4 -325 -3 -49 -7 -240 -11 -422 -4 -277 -3 -333 8 -334 70 -5
312 -2 316 4 3 4 4 81 4 170 -1 89 -2 171 -1 182 0 11 0 85 -1 165 0 80 0 152
0 160 0 8 0 116 0 240 0 124 0 232 0 240 1 29 2 395 1 430 l0 35 -210 0 c-152
0 -213 -4 -222 -13 -6 -6 -9 -12 -5 -12 4 0 3 -8 -2 -17 -5 -10 -12 -35 -15
-56 -3 -21 -11 -47 -16 -57 -6 -11 -9 -23 -8 -27 1 -4 -1 -19 -5 -33 -21 -71
-106 -394 -112 -425 -2 -11 -4 -20 -5 -20 -1 0 -3 -7 -5 -15 -1 -8 -11 -44
-20 -80 -9 -36 -19 -73 -20 -83 -2 -9 -6 -21 -9 -25 -3 -5 -8 -24 -11 -42 -7
-42 -54 -218 -65 -245 -7 -18 -8 -17 -15 10 -4 17 -31 120 -61 230 -29 110
-56 215 -59 234 -3 19 -10 42 -15 52 -6 10 -10 28 -10 41 0 13 -5 29 -12 36
-7 7 -9 12 -6 12 4 0 2 15 -3 33 -6 17 -12 43 -15 57 -3 14 -14 54 -24 90 -22
76 -85 323 -89 350 -1 3 -98 5 -216 5 l-215 0 0 -30z"/>
<path d="M6214 6321 c-3 -3 -4 -278 -4 -611 1 -570 3 -610 21 -675 11 -39 21
-75 22 -80 7 -29 63 -109 104 -149 121 -118 337 -160 575 -111 15 3 48 15 75
27 26 12 51 21 54 20 4 -1 34 25 67 56 62 59 114 141 128 202 4 19 9 42 11 50
2 8 6 31 9 50 11 62 10 1211 -1 1219 -8 6 -292 8 -315 2 -3 0 -6 -270 -6 -598
0 -661 -1 -669 -60 -729 -34 -33 -113 -59 -125 -41 -4 5 -9 5 -12 0 -4 -7 -28
-7 -64 -1 -79 12 -116 48 -141 133 -3 11 -6 294 -8 630 l-2 610 -162 0 c-89 0
-164 -2 -166 -4z"/>
<path d="M7535 6320 c-2 -3 -3 -369 -3 -815 l0 -810 159 0 c87 1 161 4 165 7
3 4 6 241 6 528 0 447 2 519 13 503 8 -10 15 -22 15 -26 0 -5 11 -32 24 -60
30 -66 69 -150 71 -157 5 -15 48 -110 115 -255 18 -38 57 -126 87 -195 67
-151 140 -309 152 -330 6 -12 36 -15 157 -15 82 0 155 1 162 3 9 3 12 175 12
813 0 445 -3 809 -7 810 -23 3 -290 4 -303 1 -14 -3 -16 -62 -15 -519 0 -283
-3 -520 -7 -526 -6 -9 -8 -9 -8 0 0 6 -16 45 -35 87 -19 42 -51 110 -70 152
-19 42 -35 77 -35 79 0 2 -15 36 -34 77 -39 86 -59 130 -116 258 -24 52 -47
100 -51 106 -5 6 -6 14 -2 17 3 4 0 7 -7 7 -7 0 -10 3 -7 6 4 4 0 19 -8 33
-13 24 -60 125 -90 196 l-13 30 -162 0 c-89 0 -163 -2 -165 -5z"/>
<path d="M8950 5514 c0 -641 3 -813 13 -816 10 -3 249 -3 298 1 15 1 35 41 21
41 -4 0 -7 56 -7 125 0 69 4 125 9 125 5 0 4 6 -1 13 -5 6 -8 77 -6 157 1 80
3 155 3 168 0 12 0 47 0 77 0 30 0 66 0 80 0 14 0 50 0 80 0 30 0 66 0 80 0
14 0 51 0 83 0 62 -1 102 -4 202 -1 36 2 71 7 78 5 6 6 12 1 12 -11 0 -11 151
0 168 4 7 3 12 -1 12 -5 0 -8 27 -7 60 1 33 -1 61 -5 61 -3 1 -77 2 -163 3
l-158 2 0 -812z"/>
<path d="M9453 6317 c-4 -7 -7 -167 -4 -244 1 -22 2 -23 198 -25 l198 -3 -1
-672 c0 -460 3 -673 11 -674 59 -6 308 -2 313 6 3 5 6 307 6 671 1 364 4 665
7 669 4 3 94 6 201 6 l194 0 0 137 0 137 -559 0 c-307 0 -561 -4 -564 -8z"/>
<path d="M10681 6320 c-5 -3 2 -27 15 -55 13 -27 23 -53 24 -58 0 -4 11 -30
25 -59 14 -28 25 -55 25 -60 0 -4 11 -32 25 -62 23 -49 46 -103 50 -116 1 -3
7 -16 12 -30 62 -142 188 -443 199 -473 8 -22 23 -55 33 -75 17 -34 19 -63 17
-335 -1 -290 -1 -297 19 -298 11 -1 87 -2 168 -3 l149 -1 -5 28 c-2 15 -1 27
2 27 3 0 6 32 6 70 0 39 -4 70 -8 70 -5 0 -6 4 -3 9 6 9 10 214 6 236 -1 6 -2
14 -1 18 1 5 2 36 2 70 0 62 26 138 110 324 15 34 33 80 40 103 7 22 16 40 21
40 4 0 8 7 8 15 0 8 11 38 24 67 51 113 65 148 59 148 -3 0 -1 6 5 13 5 6 40
84 76 172 37 88 72 170 78 182 6 13 8 26 4 30 -12 12 -336 10 -346 -2 -4 -5
-49 -134 -99 -285 -50 -151 -94 -282 -98 -290 -3 -8 -7 -19 -8 -25 -8 -34 -38
-115 -41 -112 -3 2 -56 158 -120 347 -63 189 -119 351 -124 359 -7 13 -35 16
-175 16 -91 0 -170 -2 -174 -5z"/>
<path d="M125 4265 c-47 -21 -90 -66 -108 -113 -15 -38 -17 -103 -17 -600 l0
-558 25 -50 c27 -54 60 -84 114 -102 26 -9 1419 -12 5829 -12 l5794 0 29 21
c16 11 29 18 29 14 0 -14 57 54 72 88 16 33 17 88 17 599 0 408 -4 572 -12
594 -18 48 -67 99 -115 117 -40 16 -426 17 -5835 16 -4800 -1 -5797 -3 -5822
-14z"/>
</g>
</svg>
